<svg xmlns="http://www.w3.org/2000/svg" xmlns:xlink="http://www.w3.org/1999/xlink" width="167" height="33" viewBox="0 0 167 33">
  <defs>
    <style>
      .cls-1 {
        clip-path: url(#clip-Web_1920_1);
      }

      .cls-2 {
        fill: #fff;
      }
    </style>
    <clipPath id="clip-Web_1920_1">
      <rect width="167" height="33"/>
    </clipPath>
  </defs>
  <g id="Web_1920_1" data-name="Web 1920 – 1" class="cls-1">
    <g id="cetaphil-brand-logo" transform="translate(1 1)">
      <path id="Path_1" data-name="Path 1" class="cls-2" d="M12.583,10.16v4.775a12.564,12.564,0,0,1-2.892.353c-4.1,0-7.339-2.235-7.339-6.962,0-4.281,2.634-6.891,6.633-6.891a7.12,7.12,0,0,1,5.9,2.943L14.157.664A19.034,19.034,0,0,0,9.338,0C2.987,0,0,4.3,0,8.725c0,4.892,3.457,8.027,8.609,8.027a10.051,10.051,0,0,0,4.444-.941l1.717.973V10.16l.893-1.717H11.528Z" transform="translate(0)"/>
      <path id="Path_2" data-name="Path 2" class="cls-2" d="M96.553,1.26H93.919l.917,1.669L88.791,15.84,87.31,17.494H91.5l-1.082-1.481L92.6,10.9h5.821l2.189,5.079-.973,1.511h4.753l-1.459-1.7ZM93.148,9.633l2.357-5.48,2.374,5.48Z" transform="translate(-66.072 -0.954)"/>
      <path id="Path_3" data-name="Path 3" class="cls-2" d="M186.5,13.7V2.977l1.053-1.717H183.23l1.058,1.717V15.724l-1.058,1.771h10.606l.917-2.515a57.736,57.736,0,0,1-8.161,1.175C186.521,15.441,186.5,14.641,186.5,13.7Z" transform="translate(-139.113 -0.954)"/>
      <path id="Path_4" data-name="Path 4" class="cls-2" d="M631.694,17.494l-1.459-1.7L623.863,1.26h-2.634l.917,1.669L616.1,15.84l-1.481,1.654h4.186l-1.082-1.481,2.189-5.108h5.811l2.189,5.079-.973,1.506ZM620.453,9.633l2.352-5.48,2.367,5.48Z" transform="translate(-466.694 -0.954)"/>
      <path id="Path_5" data-name="Path 5" class="cls-2" d="M436.608,5.922c0-2.987-2.432-4.622-7.409-4.622H424.09l1.058,1.717V15.764l-1.053,1.761h4.3l-1.058-1.764V10.3l8.373,7.227h3.53l-9-6.984C434.443,10.3,436.608,8.524,436.608,5.922ZM427.34,9.5V5.075c0-.8.024-1.7.095-2.515h1.81c3.481,0,5.033,1.034,5.033,3.457.007,3.505-3.622,3.481-6.045,3.481Z" transform="translate(-322.006 -0.984)"/>
      <path id="Path_6" data-name="Path 6" class="cls-2" d="M526.272,2.977l.966-1.717h-3.315l.092,1.411-5.621,11.6L512.115,1.26H509.5l1.248,2.469-1.107,11.924-1.574,1.834h4.349l-1.151-1.669.564-9.927L517.9,17.959h.307L524.18,5.327l.681,10.443-1.175,1.717h4.751l-1.224-1.717Z" transform="translate(-386.062 -0.954)"/>
      <path id="Path_7" data-name="Path 7" class="cls-2" d="M255,17.517h5.5c6.4,0,9.6-3.527,9.6-8.3,0-4.892-3.386-7.925-9.6-7.925H255l1.058,1.717V15.754Zm3.269-12.442c0-.752.024-1.6.071-2.374h1.929c5.057,0,7.477,2.432,7.477,6.68,0,4.07-2.3,6.68-7.477,6.726l-1.9.024c-.07-.705-.095-1.481-.095-2.4Z" transform="translate(-193.618 -0.976)"/>
      <path id="Path_8" data-name="Path 8" class="cls-2" d="M349.059,13.672V9.437c2.352.049,5.41.187,7.526.423l-.353-1.669-7.173.117V5.015c0-.8.024-1.669.07-2.491a45.159,45.159,0,0,1,8.027,1.129L356.24,1.22H345.79l1.058,1.717V15.684l-1.058,1.781h10.679l.917-2.54a47.8,47.8,0,0,1-8.232,1.2C349.084,15.411,349.059,14.611,349.059,13.672Z" transform="translate(-262.534 -0.923)"/>
      <path id="Path_9" data-name="Path 9" class="cls-2" d="M279.762,107.949h2.369v-.511h-2.369V106h2.5v-.516H279.2v4.466h3.123v-.516h-2.561Z" transform="translate(-211.941 -80.109)"/>
      <path id="Path_10" data-name="Path 10" class="cls-2" d="M382.323,107.375a1.07,1.07,0,0,0,.73-1.034c0-.7-.555-1.231-1.513-1.231s-1.511.53-1.511,1.231a1.07,1.07,0,0,0,.73,1.034,1.126,1.126,0,0,0-.849,1.1c0,.713.581,1.282,1.639,1.282s1.642-.569,1.642-1.282A1.126,1.126,0,0,0,382.323,107.375Zm-1.749-1c0-.46.319-.766.956-.766s.958.306.958.766-.319.766-.958.766S380.574,106.832,380.574,106.372Zm.956,2.88c-.713,0-1.07-.345-1.07-.812s.358-.81,1.07-.81,1.073.345,1.073.81S382.245,109.253,381.53,109.253Z" transform="translate(-288.391 -79.829)"/>
      <path id="Path_11" data-name="Path 11" class="cls-2" d="M347.09,106.137v.542l1.187-.606v3.873h.55V105.48h-.452Z" transform="translate(-263.47 -80.109)"/>
      <path id="Path_12" data-name="Path 12" class="cls-2" d="M362.716,105.11a1.538,1.538,0,0,0-1.659,1.557,1.489,1.489,0,0,0,1.518,1.537,1.384,1.384,0,0,0,.861-.28l-1.379,1.742h.671l.958-1.262a2.834,2.834,0,0,0,.662-1.7A1.525,1.525,0,0,0,362.716,105.11Zm-.015,2.61a1.057,1.057,0,1,1,1.087-1.053A.989.989,0,0,1,362.7,107.72Z" transform="translate(-274.08 -79.829)"/>
      <path id="Path_13" data-name="Path 13" class="cls-2" d="M299.9,107.266l-.73-.173c-.594-.141-.805-.358-.805-.7,0-.465.384-.73,1.022-.73a1.314,1.314,0,0,1,1.194.574l.44-.268a1.7,1.7,0,0,0-1.622-.817c-.995,0-1.608.523-1.608,1.258,0,.606.421.995,1.245,1.192l.73.173c.557.134.793.365.793.73,0,.472-.4.786-1.08.786a1.4,1.4,0,0,1-1.357-.791l-.455.26a1.781,1.781,0,0,0,1.807,1.041c1.058,0,1.666-.535,1.666-1.316C301.141,107.865,300.776,107.475,299.9,107.266Z" transform="translate(-225.963 -79.859)"/>
      <path id="Path_14" data-name="Path 14" class="cls-2" d="M398.47,106.137v.542l1.187-.606v3.873h.55V105.48h-.452Z" transform="translate(-302.471 -80.109)"/>
      <path id="Path_15" data-name="Path 15" class="cls-2" d="M332.677,120.9a.384.384,0,1,0,.382.377.362.362,0,0,0-.382-.377Z" transform="translate(-252.231 -91.776)"/>
      <path id="Path_16" data-name="Path 16" class="cls-2" d="M316.17,106h1.494v3.943h.562V106h1.494v-.523H316.17Z" transform="translate(-240.007 -80.109)"/>
    </g>
  </g>
</svg>
